# xmcd
#
# Track frame offsets: 
#        150
#        11080
#        20687
#        32487
#        49867
#        62182
#        76105
#        89965
#        101662
#        114487
#
# Disc length: 1747 seconds
#
# Revision: 1
# Processed by: cddbd v1.5.2PL0 Copyright (c) Steve Scherf et al.
# Submitted via: ExactAudioCopy v1.0b3
#
DISCID=7f06d10a
DTITLE=Jack Greene - The Best Of The Best
DYEAR=1999
DGENRE=Country
TTITLE0=There Goes My Everything
TTITLE1=Wish I Didn't Have To Miss You
TTITLE2=All The Time
TTITLE3=What Locks The Door
TTITLE4=Wanting You But Never Having You
TTITLE5=You Are My Treasure
TTITLE6=Statue Of A Fool
TTITLE7=Until My Dreams Come True
TTITLE8=I Need Somebody Bad
TTITLE9=Last Letter
EXTD=
EXTT0=
EXTT1=
EXTT2=
EXTT3=
EXTT4=
EXTT5=
EXTT6=
EXTT7=
EXTT8=
EXTT9=
PLAYORDER=
